<svg xmlns="http://www.w3.org/2000/svg" xmlns:xlink="http://www.w3.org/1999/xlink" viewBox="0 0 3165.48 429.33">
  <path fill="#1F2B3D" d="M0 0h3165.48v429.33H0z"/>
  <linearGradient id="a" x1="2924.17" x2="3035.44" y1="390.92" y2="29.35" gradientUnits="userSpaceOnUse">
    <stop offset="0" stop-color="#FDC865"/>
    <stop offset=".4" stop-color="#F9E6BD"/>
    <stop offset="1" stop-color="#FDC865"/>
  </linearGradient>
  <path fill="url(#a)" d="M2801.78 11.84H2870l108.03 175.33 108.1-175.33h68.22l-158.62 203.23 158.94 203.63h-68.22l-108.23-174.4L2870 418.7h-68.22l158.6-203.22"/>
  <path fill="#FDD378" d="M3155.7 419.2h-69.53l-.14-.24-107.8-173.7-107.95 173.94h-69.53l159-203.72-159-204.14h69.53l107.75 174.87 107.82-174.8h69.52l-.63.8-158.37 203 159.33 204.1zm-68.97-1h66.9L2995.1 215.07l.24-.3 157.98-202.43h-66.9L2978 188.12 2869.7 12.34h-66.92L2961 215.48 2802.8 418.2h66.92l108.5-174.85 108.5 174.85z"/>
  <defs>
    <filter id="b" width="354.94" height="407.85" x="2800.75" y="11.34" filterUnits="userSpaceOnUse">
      <feColorMatrix values="-1 0 0 0 1 0 -1 0 0 1 0 0 -1 0 1 0 0 0 1 0" color-interpolation-filters="sRGB" result="source"/>
    </filter>
  </defs>
  <mask id="c" width="354.94" height="407.85" x="2800.75" y="11.34" maskUnits="userSpaceOnUse">
    <image width="1496" height="1717" overflow="visible" xlink:href="DD365F327232A3A8.jpg" transform="matrix(.24 0 0 .24 2798.75 9.34)" filter="url(#b)"/>
  </mask>
  <g fill="#F9B558" opacity=".6" mask="url(#c)">
    <path d="M2801.78 11.84H2870l108.03 175.33 108.1-175.33h68.22l-158.62 203.23 158.94 203.63h-68.22l-108.23-174.4L2870 418.7h-68.22l158.6-203.22"/>
    <path d="M3155.7 419.2h-69.53l-.14-.24-107.8-173.7-107.95 173.94h-69.53l159-203.72-159-204.14h69.53l107.75 174.87 107.82-174.8h69.52l-.63.8-158.37 203 159.33 204.1zm-68.97-1h66.9L2995.1 215.07l.24-.3 157.98-202.43h-66.9L2978 188.12 2869.7 12.34h-66.92L2961 215.48 2802.8 418.2h66.92l108.5-174.85 108.5 174.85z"/>
  </g>
  <path fill="#FFF" d="M481.6 28.18L373.38 412.84h-42.86l-71.25-265.2-90.54 265.2H126.4L23 28.18h50.9l78.75 301.62L235.7 87.1l-13.95-58.9h54.1l76.65 301.6 76.6-301.62h52.52zm268.93 252.07c0 41-11.25 74.24-33.75 99.72-22.5 25.5-51.62 38.23-87.33 38.23-35.36 0-64.1-12.74-86.25-38.23-22.15-25.48-33.22-58.72-33.22-99.72 0-39.93 11.25-72.8 33.75-98.66s51.07-38.8 85.72-38.8c35 0 63.93 12.9 86.8 38.7 22.85 25.8 34.28 58.7 34.28 98.6zm-47.15 0c0-30.63-6.83-55.03-20.47-73.2-13.6-18.16-31.4-27.26-53.4-27.26s-39.5 9.1-52.6 27.2c-13.1 18.1-19.6 42.5-19.6 73.2 0 30.3 6.7 54.7 20 73.2s30.77 27.8 52.4 27.8c21.98 0 39.8-9.4 53.45-28.1 13.66-18.7 20.5-43 20.5-73zm251.8-90.28h-22.5c-41.08 0-67.33 11.13-78.76 33.38v189.5H808.4v-187c0-32.14-8.95-50.9-26.8-56.24l35.9-25.7c16.07 7.2 27.67 20.7 34.82 40.7 25.7-27.1 54.82-40.7 87.32-40.7 6.78 0 11.96.2 15.54.6V190zm258.76 222.87h-53.04l-77.68-143.04-45 44.46v98.58h-45.54V28.18h45.54v230.9l87.32-86.12c19.64-19.37 43.93-29.06 72.86-29.06v39.65h-5.9c-15.7 0-41.6 18.8-77.67 56.38l99.1 172.9zm222.86-72.32c0 24.3-9.56 43.75-28.66 58.4-19.1 14.63-43.5 21.77-73.13 21.42-28.2-.36-51.4-7.5-69.6-21.43-20.3-15.3-30.9-36.7-31.6-64.2h52.9c1.8 31.8 18.9 48.1 51.3 48.8 13.5-.3 25.1-3.5 34.7-9.6 11.4-7.1 17.1-17.3 17.1-30.4 0-16.73-12.8-29.92-38.4-39.54-23.8-8.9-47.7-17.8-71.5-26.72-25.6-13.5-38.4-33.5-38.4-59.83 0-20.65 7.68-38.02 23.05-52.1 15.38-14.1 34.66-21.12 57.9-21.12 24.63 0 44.8 6.1 60.5 18.2 17.5 13.6 26.27 32 26.27 55.2h-46.6c1.07-3.23 1.6-6.3 1.6-9.22 0-8.7-3.84-15.75-11.5-21.17-7.7-5.44-16.2-7.6-25.46-6.55-27.16 2.85-40.7 14.64-40.7 35.35 0 15 13 27.1 39.1 36.4 46.4 16.8 70.5 25.7 72.3 26.8 26.04 14.3 39.1 34.8 39.1 61.6zm171.43 73.38c-15.72 2.16-26.8 3.23-33.2 3.23-33.6 0-55.73-12.14-66.45-36.43-5.7-13.57-8.57-37.5-8.57-71.8V180.34h-42.8v-34.3h42.8v-41.77l45.6-19.83v61.6h60v34.3h-60v130.2c0 22.13 1.4 37.3 4.3 45.52 5.4 15.72 16.6 23.57 33.8 23.57 5 0 13.2-.7 24.6-2.14v36.4zm189.12-223.93h-22.5c-41.08 0-67.33 11.13-78.76 33.38v189.5h-45.6v-187c0-32.14-9-50.9-26.8-56.24l35.9-25.7c16 7.2 27.6 20.7 34.8 40.7 25.7-27.1 54.8-40.7 87.3-40.7 6.8 0 11.9.2 15.5.6V190zm261.97 102.33h-192.86c1.78 23.7 7.67 43.65 17.68 59.82 12.85 21.2 31.07 31.8 54.64 31.8 28.2 0 48.75-13.4 61.6-40.2h48.23c-18.9 51.1-55.5 76.62-109.8 76.62-40.3 0-71.2-15.68-92.7-47.05-17.1-25.7-25.7-56.9-25.7-93.6 0-39.6 11.2-72.1 33.5-97.6s50.6-38.2 84.9-38.2c41.5 0 72.9 14.9 94.3 44.6 17.5 24.4 26.3 54.8 26.3 90.9v12.7zm-48.22-38.57c-7.5-49.3-31.6-73.93-72.32-73.93-38.22 0-61.6 24.64-70.18 73.93h142.5zm317.16 144.07l-36.43 25.2c-16.8-8.22-27.5-21.25-32.15-39.1-7.86 8.92-19.28 16.96-34.28 24.1-16.44 7.85-32.15 11.8-47.15 11.8-25 0-45.54-8.24-61.6-24.72-15.37-15.03-23.05-33.28-23.05-54.76 0-23.27 9.1-41.7 27.33-55.3 13.2-10.4 34.1-19.34 62.68-26.85 24-6.1 47.7-12.18 71.3-18.27V227c0-13.23-3.9-23.97-11.8-32.2-8.9-9.3-21-13.96-36.4-13.96-16.4 0-28.5 2.98-36.2 8.96s-14.4 16.2-20.1 30.68h-46c2.9-20.85 14.5-38.83 34.8-53.94 20.4-15.1 42.9-22.66 67.5-22.66 28.6 0 51.4 6.98 68.3 20.93 17 14 25.5 32.8 25.5 56.4V335c0 36.5 9.3 57.42 27.9 62.8zm-73.4-63.42v-56c-41.44 9.33-66.08 15.6-73.93 18.84-28.22 11.14-42.32 27.1-42.32 47.93 0 10.06 3.8 18.6 11.3 25.6 7.5 6.98 17.3 10.48 29.5 10.48 13.2 0 29.1-5.65 47.7-16.96 18.6-11.3 27.9-21.27 27.9-29.9zm473.04 84.46h-44.45V244.2c0-17.5-4.74-31.9-14.2-43.14-9.47-11.25-23.13-16.87-40.98-16.87-12.5 0-24.74 4.2-36.7 12.5-11.97 8.4-17.95 17.6-17.95 27.6v194.5h-44.47V244.2c0-17.15-4.9-31.43-14.73-42.87-9.83-11.42-23.3-17.14-40.45-17.14-20.7 0-38.75 9.6-54.1 28.9v205.7h-44.47V219.5c0-10-2.33-19.63-6.97-28.92-4.64-9.3-10-14.8-16.07-16.6l32.68-22.5c14.28 7.15 23.75 18.04 28.4 32.68 17.85-23.6 41.6-35.37 71.25-35.37 26.7 0 49.2 14.3 67.5 42.8 7.1-12.2 17.9-22.4 32.4-30.6 14.4-8.2 29-12.3 43.6-12.3 66.4 0 99.6 30.7 99.6 92.1v177.9z"/>
</svg>
