<svg xmlns="http://www.w3.org/2000/svg" viewBox="0 0 474.13 454.39">
  <g fill="#FFF">
    <path d="M130.12 292.78s1.34 1.6 3.86 4.56l2.1 2.5c.8.87 1.7 1.8 2.65 2.84 1.92 2.05 4.06 4.44 6.73 6.87l4.13 3.92 4.7 4.04 2.5 2.2 2.7 2.1c1.8 1.4 3.7 3 5.8 4.4 8.1 5.9 17.9 11.5 29 16.6 11.1 5.1 23.7 9.4 37.4 12.3 13.7 2.9 28.4 4.5 43.8 4 7.5-.2 15.3-.8 23.1-1.9 7.7-1.2 15.5-2.7 23.2-5 7.7-2.3 15.3-4.9 22.7-8.3 7.4-3.3 14.6-7.2 21.5-11.5 6.9-4.4 13.4-9.3 19.6-14.6 6.1-5.3 11.8-11.1 17-17.3 5.2-6.1 9.8-12.6 13.9-19.4 2.1-3.3 3.9-6.8 5.7-10.3 1.6-3.5 3.4-7 4.7-10.5 1.5-3.5 2.6-7.1 3.9-10.7 1-3.6 2.2-7.2 2.9-10.8 1.7-7.2 2.7-14.4 3.3-21.4.6-7 .5-14 .2-20.6-.5-6.6-1.2-13-2.5-19-2.4-12.1-6.1-22.9-10.3-32.1-4.2-9.1-8.7-16.7-12.8-22.7-4.1-5.9-7.7-10.4-10.2-13.4l-3.9-4.5c-.1-.1-.1-.4 0-.5.2-.1.4-.1.5 0l4 4.5c2.6 2.9 6.3 7.3 10.5 13.2 4.3 6 9 13.5 13.4 22.7 4.4 9.1 8.5 20 11.1 32.3 1.4 6.1 2.3 12.6 3 19.4.5 6.8.7 13.8.2 21-.5 7.2-1.3 14.6-3 22-.7 3.7-1.9 7.4-2.8 11.2-1.3 3.7-2.4 7.5-3.9 11.1-1.3 3.7-3.1 7.3-4.7 11-1.8 3.6-3.6 7.2-5.7 10.7-4.1 7-8.7 13.9-14.1 20.3-5.3 6.4-11 12.5-17.3 18.2-6.3 5.6-13 10.8-20 15.5-7.1 4.7-14.5 8.8-22.1 12.4-7.6 3.7-15.5 6.6-23.4 9.1-8 2.6-16.1 4.3-24.1 5.7-8.1 1.3-16.1 2-24.1 2.3-15.8.3-31.2-1.3-45.4-4.7-14.2-3.3-27.1-8.2-38.4-13.8-11.4-5.7-21.1-12.1-29.1-18.5s-14.6-12.5-19.3-18.1c-2.6-2.6-4.6-5.2-6.4-7.4l-2.5-3.1-1.9-2.6-3.5-4.9c-.1-.2-.1-.4.1-.5.14-.1.35-.1.5.1z"/>
    <path d="M472.85 221.87l-.12-10.47c-.44-6.77-.9-16.77-3.4-29.24-2.38-12.45-6.64-27.36-14.04-43.38-1.8-4.05-4-8.03-6.1-12.2-2.4-4.04-4.7-8.28-7.5-12.36-2.6-4.2-5.7-8.26-8.7-12.45-3.3-4.05-6.5-8.23-10.2-12.2-7.3-8.08-15.4-15.92-24.4-23.24-9.1-7.33-19.1-14.06-29.9-20.06-21.6-11.97-46.5-20.87-73.2-24.8-6.6-1-13.4-1.66-20.2-2.06-3.4-.1-6.9-.3-10.2-.3-3.5.1-7.1 0-10.5.2-13.7.5-27.7 2.4-41.4 5.6-27.4 6.4-53.9 18.4-76.9 35.3-23 16.8-42.3 38.6-55.8 63-13.6 24.4-21.6 51.2-23.5 77.6l-.6 9.9c-.1 3.1-.1 6.7-.1 9.9.1 3.2.2 6.4.4 9.6.3 3.2.5 6.4 1 9.6 1.6 12.7 4.4 24.9 8.1 36.4 3.8 11.6 8.6 22.5 14.1 32.5 5.5 10.1 11.7 19.3 18.3 27.7 13.3 16.8 27.9 30.2 42.1 40.3 3.5 2.7 7.1 4.9 10.5 7.2 3.5 2.1 6.8 4.3 10.1 6.1l4.8 2.8c1.6.9 3.2 1.6 4.8 2.4 3.1 1.7 6.1 3 9 4.3 11.5 5.2 21 8.2 27.5 10.2 3.2 1 5.8 1.6 7.4 2.1l2.6.7c.3.1.5.5.4.8-.1.4-.4.5-.7.5l-2.7-.5c-1.7-.3-4.3-.7-7.7-1.4-6.7-1.5-16.5-3.9-28.6-8.4-12.1-4.4-26.5-10.9-41.6-20.8-7.6-4.8-15.4-10.6-23-17.3-7.7-6.6-15.4-14.2-22.6-22.7-7.3-8.5-14.1-18-20.3-28.5-6.1-10.4-11.5-21.8-15.8-34-4.4-12.1-7.5-25.1-9.3-38.5-.6-3.3-.8-6.8-1.1-10.2-.3-3.4-.4-7-.6-10.5v-10.3l.5-10.5c2.4-28.1 11.2-56.6 26.2-82 15-25.5 35.6-48 60-65.2 24.3-17.2 52.1-29.3 80.7-35.5 14.3-3.1 28.7-4.7 43.1-5 3.6-.2 7.1 0 10.6 0 3.6 0 7.1.3 10.6.5 7 .5 14 1.3 20.8 2.4 27.4 4.5 52.9 14 74.8 26.8 11 6.4 21.1 13.5 30.3 21.2 9.1 7.7 17.3 15.9 24.5 24.2 3.6 4.2 6.9 8.5 10.1 12.7 3 4.4 6 8.6 8.6 12.9 2.8 4.2 5 8.6 7.3 12.7 2.1 4.3 4.3 8.4 5.95 12.5 7.2 16.4 11.2 31.6 13.4 44.2 2.3 12.7 2.53 22.8 2.84 29.6l-.1 10.5c0 .3-.3.6-.6.6-.34 0-.6-.3-.6-.6z"/>
    <path d="M388.55 44.8l-6.6-4.17c-2.17-1.33-4.8-3.08-7.97-4.95l-11.14-5.93c-1.05-.54-2.1-1.16-3.22-1.67l-3.5-1.55-7.5-3.32c-1.3-.5-2.62-1.1-4-1.7l-4.26-1.5-9-3.2c-1.52-.6-3.13-1-4.77-1.5-1.7-.4-3.3-.9-5-1.4-3.4-.8-6.8-2-10.4-2.7-7.3-1.4-14.8-3.2-22.9-4l-6.1-.7-3.1-.4-3.2-.1-12.8-.6c-4.3-.1-8.8.1-13.3.1-4.5.4-9 .5-13.6 1-18.4 1.8-37.6 5.5-56.4 12.5-19 6.7-37.5 16.3-54.6 28.4-17.2 12.2-32.8 27-45.8 43.8-6.6 8.3-12.4 17.3-17.6 26.5-5.3 9.2-9.6 18.8-13.2 28.6-7.3 19.5-11.5 39.8-12.8 59.5l-.4 7.4-.1 1.8v.1l-.1.3V228c0 2.44.3 4.74.4 7.1.1 2.33.2 4.65.4 7l.8 6.95c.3 2.3.4 4.66.9 6.9l1.2 6.8c.7 4.5 1.9 8.8 2.9 13.1.9 4.3 2.4 8.4 3.7 12.5 1.1 4.15 2.8 8 4.2 11.9 1.4 3.9 3.2 7.57 4.8 11.2 6.7 14.5 14.3 27.07 21.9 37.7 3.9 5.2 7.5 10.13 11.3 14.34 1.8 2.1 3.5 4.3 5.3 6.2l5.1 5.4 2.3 2.5c.8.7 1.6 1.5 2.3 2.2l4.3 4.1c2.6 2.5 5 4.5 6.9 6.2l5.9 5.1c.2.2.2.6 0 .8-.2.2-.6.2-.8.1l-6.5-4.4c-2.2-1.5-4.8-3.2-7.7-5.6l-4.7-3.8-2.6-2.1-2.7-2.3c-7.2-6.3-15.5-14.5-24.2-24.8-8.5-10.4-17.3-22.9-25-37.8-1.8-3.7-3.9-7.5-5.5-11.5-1.7-4-3.6-8-5-12.3-1.5-4.2-3.2-8.5-4.3-13-1.3-4.5-2.7-9-3.6-13.7l-1.5-7.1c-.5-2.4-.8-4.8-1.1-7.2l-1-7.4-.6-7.6c-.1-2.6-.4-5.2-.5-7.7l-.1-7.5v-5.9l.1-1.9.4-7.8c2-20.7 6.6-42.1 15-62.4 4.1-10.2 8.96-20.2 14.67-29.7 5.7-9.5 11.9-18.7 19-27.3 14-17.3 30.6-32.3 48.6-44.6 18-12.2 37.4-21.8 57-28.3C197.3 5.6 217.1 2 235.97.7c4.7-.4 9.4-.4 14-.6 4.56.1 8.9.03 13.46.3l13.08 1c1.1.1 2.1.17 3.2.26 1.1.14 2.1.3 3.2.47l6.1.9c8.2 1 15.8 3.1 23.1 4.7 3.7.9 7.1 2.1 10.5 3.1 1.7.5 3.4 1.07 5 1.58 1.7.4 3.3 1 4.8 1.6 12.5 4.6 23 9.6 31.5 14.1l11.1 6.3c3.1 2 5.7 3.8 7.8 5.2l6.5 4.4c.2.2.3.6.1.8-.2.3-.6.4-.8.2z"/>
    <path d="M108.1 39.1l-5.36 4.38c-1.7 1.47-4 3.1-6.4 5.27l-8.28 7.4-9.75 9.73-5.2 5.77c-1.8 2-3.7 4.03-5.5 6.3-7.5 8.75-15 19.4-22.3 31.4-1.7 3.08-3.6 6.17-5.3 9.38l-5 10c-1.6 3.4-3.1 6.98-4.6 10.55-.8 1.77-1.5 3.6-2.1 5.48L26 150.4c-5.3 15.1-9.34 31.6-11.4 49-2.2 17.3-2.4 35.6-.37 53.8 2.2 18.28 6.8 36.6 13.73 54.07 7.1 17.4 16.2 34.02 27.33 48.9 11 14.9 23.6 28.37 37.3 39.7 13.6 11.4 28 20.8 42.4 28.44 14.4 7.7 28.8 13.4 42.5 17.5s26.6 6.7 38.1 8.3c5.7.7 11.1 1.4 16.2 1.6 2.5.2 4.9.4 7.2.5 2.3 0 4.5.1 6.6.1 4.2 0 7.9.2 11.2 0l8.2-.5 6.8-.4c.3 0 .6.3.6.6s-.3.6-.6.6c0 0-2.4.2-6.9.7l-8.3.8c-3.3.3-7 .2-11.2.4l-6.7.2c-2.4 0-4.8-.1-7.4-.2-5.1 0-10.6-.6-16.5-1.1-11.7-1.3-24.9-3.4-38.9-7.2-14-3.7-28.9-9.1-43.9-16.4-15-7.3-30-16.7-44.3-28.1-14.3-11.3-27.6-24.9-39.5-40.1-11.7-15.1-21.6-32.2-29.4-50.1C11.2 293.2 6 274.2 3 255c-2.7-19.5-2.75-38.6-.7-57 2.2-18.37 6.7-35.8 12.9-51.57l2.4-5.85c.78-1.94 1.6-3.84 2.5-5.68 1.8-3.7 3.46-7.4 5.3-10.9l5.77-10.2c2.04-3.25 4.1-6.38 6.1-9.47.97-1.56 2-3.07 3.08-4.5l3.18-4.3 3.1-4.17c1.08-1.34 2.2-2.62 3.26-3.9 2.1-2.55 4.2-5.1 6.3-7.44l6.3-6.7c2-2.2 4.1-4.1 6.1-6l5.8-5.5 11-8.9c3.4-2.5 6.5-4.7 9.2-6.7 2.6-2 5-3.3 6.9-4.6 3.8-2.4 5.8-3.64 5.8-3.64.2-.2.6-.1.8.17.1.27.1.6-.2.8z"/>
    <path d="M84.28 276.74l3.74 7.68 2.03 4.2c.73 1.54 1.73 3.08 2.7 4.83 2.06 3.44 4.06 7.53 7.1 11.7 1.43 2.13 2.95 4.36 4.54 6.7 1.6 2.34 3.5 4.58 5.4 7.03 3.6 5 8.3 9.77 13 15.06 10 10.1 22.2 20.47 36.9 29.7 1.8 1.16 3.7 2.32 5.6 3.48 1.8 1.22 3.9 2.12 5.8 3.2 4 2.1 8 4.35 12.3 6.08 4.2 1.87 8.5 3.94 13.1 5.42 4.5 1.62 9.1 3.37 13.9 4.55l7.2 2c2.4.7 4.9 1.03 7.4 1.6 2.5.5 5 1.02 7.5 1.54 2.5.5 5.1.7 7.6 1.1l7.8 1 7.9.5c2.6.2 5.4.4 7.9.4h8.3c21.3-.3 43.7-4.1 65.1-11.7 21.3-7.6 41.7-19.4 59.3-34.4 17.5-15 32.3-33.4 42.9-53.6 10.7-20.2 17.2-42.1 19.4-63.8.4-2.7.4-5.4.6-8.1l.2-3.9v-4.1c-.1-5.4.1-10.9-.6-16l-.7-7.7c-.3-2.6-.9-5.1-1.3-7.6-.5-2.5-.8-5.1-1.3-7.5l-1.8-7.3c-5-19.5-13-37-22.4-51.8-9.5-14.9-20.2-27.1-30.6-36.9l-7.8-6.9c-1.3-1.1-2.6-2.1-3.9-3.1l-3.8-2.9c-4.8-3.9-9.7-6.9-14.1-9.7l-3.1-2.1-3.1-1.7-5.6-3.1c-3.5-2.1-6.6-3.4-9.2-4.6l-7.6-3.6c-.3-.1-.5-.5-.3-.8.1-.3.5-.4.7-.3l7.8 3.4c2.6 1.1 5.8 2.4 9.3 4.4l5.8 3 3.2 1.7c1.1.7 2.1 1.3 3.2 2 4.5 2.8 9.5 5.7 14.5 9.5l4 2.7c1.3.9 2.7 1.9 3.9 3l8.1 6.8c10.8 9.8 22.1 21.9 32.1 36.9 10 14.9 18.7 32.6 24.3 52.6l2.1 7.5c.6 2.6 1.02 5.2 1.52 7.8.47 2.6 1.05 5.2 1.4 7.9l.9 8.2c.8 5.5.7 10.9.9 16.3l.1 4.1-.2 4.4c-.1 2.8-.14 5.6-.5 8.4-1.8 22.6-8.2 45.7-18.95 67-10.7 21.4-25.8 40.9-43.9 57-18.1 16.2-39.3 29-61.6 37.7-11.2 4.3-22.7 7.7-34.28 9.9-11.6 2.2-23.1 3.5-34.8 3.8h-8c-3.07 0-5.7-.3-8.57-.5l-8.37-.5-8.25-1.2c-2.72-.4-5.44-.7-8.12-1.2l-7.9-1.7c-2.6-.6-5.2-1.1-7.8-1.9-2.5-.8-5-1.5-7.5-2.3-5.08-1.4-9.86-3.3-14.6-5.2-4.8-1.7-9.26-4-13.7-6.1-4.5-2-8.64-4.5-12.75-6.9-2-1.2-4.15-2.2-6.05-3.6l-5.7-3.9c-15-10.3-27.2-21.9-36.9-32.9-4.5-5.8-9-11-12.4-16.4-1.7-2.6-3.5-5.1-5-7.6l-4-7.2c-2.7-4.5-4.4-8.9-6.2-12.6-.83-1.8-1.72-3.5-2.32-5.1l-1.6-4.4-2.9-8c-.1-.3 0-.7.3-.8.2-.1.6 0 .7.3z"/>
    <path d="M91.76 234.86l2 7.22 1.1 3.94c.43 1.43.7 3.08 1.38 4.7 1.22 3.26 2.6 7.02 4.16 11.24 1.7 4.15 4.03 8.6 6.28 13.5 1.18 2.43 2.72 4.8 4.14 7.34l2.23 3.85c.75 1.3 1.48 2.65 2.43 3.9 6.85 10.4 15.72 21.32 26.63 31.97 2.9 2.5 5.9 5.05 8.8 7.66l2.3 1.95c.8.62 1.6 1.2 2.4 1.8l4.9 3.6c1.7 1.2 3.3 2.48 5 3.66l5.4 3.3c3.6 2.2 7.2 4.6 11.1 6.4 15.4 8.1 32.6 14.9 51.2 18.4 4.7.9 9.4 1.5 14.1 2.3 2.4.5 4.8.5 7.2.7 2.4.2 4.9.3 7.3.5l3.7.3h3.7c2.5-.1 5.1.1 7.5 0l7.3-.3 7.5-.6c19.9-2 39.8-7.2 58.3-15.7 18.5-8.6 35.5-20.3 49.8-34.3 14.4-14 25.9-30.5 34-47.8 8.3-17.3 12.8-35.6 14.6-53.1 1.6-17.6.5-34.5-2.8-49.5-3.2-15.1-8.3-28.5-14.1-39.7-5.7-11.2-11.9-20.4-17.5-27.5-5.6-7.1-10.5-12.3-13.9-15.8l-5.3-5.2c-.2-.2-.2-.6 0-.8.2-.2.6-.2.8 0l5.5 5.1c3.6 3.4 8.6 8.5 14.5 15.5 5.8 7 12.3 16.1 18.4 27.3 6.2 11.2 11.7 24.7 15.4 40 3.9 15.3 5.4 32.5 4.3 50.7-1.4 18.1-5.7 37.1-14 55.2-8.1 18.1-19.7 35.5-34.4 50.4-14.6 14.9-32.1 27.5-51.3 36.8-19.1 9.4-39.9 15.2-60.7 17.9l-7.8.8-7.9.4c-2.7.2-5.1.1-7.6.2h-3.9l-3.9-.3-7.7-.5c-2.5-.2-5.1-.3-7.6-.7-5-.8-10.1-1.4-15-2.3L217 376c-4.67-1.56-9.3-3.1-13.88-4.66-4.5-1.63-8.8-3.72-13.2-5.55l-3.2-1.5-3.1-1.7-6.1-3.3c-4.1-2.1-7.8-4.7-11.53-7.2l-5.5-3.6c-1.8-1.3-3.5-2.7-5.2-4l-5-4c-.8-.7-1.7-1.3-2.5-2l-2.3-2-8.9-8.4-7.8-8.8c-2.6-2.8-4.6-6-6.9-8.8-4.6-5.7-7.9-11.8-11.3-17.3-.9-1.4-1.6-2.8-2.3-4.2l-2.1-4.1c-1.3-2.7-2.7-5.3-3.8-7.9-1.9-5.2-3.9-9.9-5.3-14.3-1.3-4.5-2.3-8.5-3.3-11.9-.8-3.5-1.2-6.5-1.6-8.9l-1.2-7.4c0-.3.2-.6.5-.6s.5.1.6.4z"/>
  </g>
</svg>
