<svg xmlns="http://www.w3.org/2000/svg" viewBox="0 0 792 512">
  <g>
    <g fill="#FFF">
      <path d="M306.95 320.22s1.34 1.6 3.86 4.56l2.1 2.5c.9.86 1.7 1.8 2.7 2.84 1.9 2.05 4.1 4.44 6.8 6.87l4.2 3.9c1.5 1.3 3.1 2.6 4.8 4l2.5 2.1c.9.7 1.8 1.4 2.8 2.1 1.9 1.4 3.7 2.9 5.8 4.3 8.1 5.8 17.9 11.5 29.1 16.6 11.2 5 23.8 9.4 37.5 12.3 13.8 2.8 28.4 4.4 43.8 4 7.5-.2 15.3-.8 23.1-2 7.8-1.3 15.6-2.8 23.3-5.1 7.7-2.3 15.3-5 22.7-8.3 7.4-3.4 14.6-7.2 21.5-11.6 6.9-4.4 13.4-9.3 19.6-14.7 6.2-5.3 11.8-11.2 17-17.3 5.3-6.1 9.9-12.7 14-19.4 2.1-3.4 3.9-6.9 5.7-10.3 1.6-3.6 3.4-7 4.7-10.6 1.6-3.6 2.7-7.2 3.9-10.8 1.1-3.6 2.2-7.2 3-10.8 1.8-7.2 2.7-14.4 3.4-21.4.6-7 .6-14 .2-20.6-.5-6.7-1.2-13.1-2.5-19.1-2.3-12.2-6.1-22.9-10.3-32.1-4.1-9.2-8.6-16.8-12.7-22.7-4.1-6-7.6-10.4-10.2-13.4l-4-4.3c-.1-.1-.1-.4 0-.5.2-.1.4-.1.5 0l4 4.4c2.6 2.9 6.3 7.3 10.5 13.2 4.3 5.9 9 13.5 13.4 22.6 4.4 9.1 8.5 20 11.1 32.3 1.5 6.1 2.3 12.6 3 19.3.5 6.8.7 13.7.2 21-.4 7.2-1.3 14.6-3 22-.7 3.7-1.8 7.4-2.8 11.1-1.2 3.6-2.3 7.4-3.9 11.1-1.3 3.7-3 7.3-4.7 10.9-1.8 3.5-3.6 7.2-5.7 10.7-4.1 7-8.7 13.8-14 20.2-5.3 6.4-11 12.5-17.3 18.1-6.3 5.6-13 10.8-20 15.5-7.1 4.6-14.5 8.7-22.1 12.4-7.6 3.6-15.5 6.6-23.4 9.1-8 2.5-16.1 4.3-24.1 5.7-8.1 1.3-16.1 2-24.2 2.3-15.7.2-31.2-1.3-45.3-4.7-14.2-3.3-27.1-8.2-38.4-13.9-11.3-5.7-21-12.1-29-18.5-7.9-6.5-14.5-12.5-19.3-18.1-2.5-2.7-4.5-5.3-6.3-7.5-.9-1.1-1.7-2.2-2.4-3.1l-2-2.5-3.4-4.9c-.1-.2-.1-.4.1-.5.2-.1.4-.1.5 0z"/>
      <path d="M649.68 249.3l-.12-10.47c-.43-6.76-.9-16.77-3.4-29.23-2.38-12.45-6.64-27.36-14.03-43.38-1.74-4.06-3.97-8.03-6.1-12.2-2.37-4.04-4.64-8.28-7.43-12.36-2.62-4.2-5.66-8.26-8.7-12.45-3.23-4-6.5-8.2-10.15-12.2-7.22-8-15.36-15.9-24.4-23.2-9.08-7.3-19.1-14-29.92-20C523.8 61.9 498.9 53 472.27 49c-6.65-1-13.42-1.68-20.23-2.07-3.4-.1-6.9-.4-10.22-.34-3.47 0-7.04-.1-10.47.1-13.66.5-27.7 2.3-41.38 5.5-27.43 6.4-53.96 18.4-76.94 35.2-23.02 16.8-42.3 38.5-55.85 62.9-13.57 24.4-21.56 51.2-23.5 77.6l-.6 9.8c-.04 3-.08 6.7-.06 9.9.17 3.2.2 6.3.46 9.5.33 3.2.45 6.4.95 9.6 1.6 12.6 4.42 24.8 8.17 36.4 3.78 11.5 8.6 22.4 14.13 32.4 5.5 10.1 11.7 19.3 18.32 27.7 13.3 16.7 27.9 30.2 42.13 40.3 3.5 2.6 7.07 4.8 10.47 7.1 3.5 2.1 6.8 4.3 10.17 6.1l4.87 2.7c1.6.9 3.2 1.6 4.7 2.4 3.1 1.7 6.1 3 9 4.3 11.5 5.2 21 8.2 27.5 10.2 3.2 1 5.8 1.6 7.5 2.1l2.5.7c.3.1.5.4.4.7-.1.3-.4.5-.7.4l-2.7-.5c-1.8-.3-4.4-.8-7.7-1.5-6.8-1.4-16.6-3.9-28.7-8.3-12.1-4.5-26.5-10.9-41.6-20.8-7.6-4.9-15.4-10.7-23-17.3-7.7-6.7-15.3-14.2-22.6-22.8-7.2-8.5-14.1-18-20.2-28.5s-11.5-21.9-15.8-34c-4.3-12.2-7.5-25.1-9.3-38.6-.5-3.4-.7-6.8-1.1-10.2-.3-3.4-.3-7-.5-10.5-.1-3.5-.1-6.6 0-10.3l.5-10.5c2.4-28.1 11.2-56.6 26.2-82.1 14.9-25.3 35.5-47.9 59.9-65 24.3-17.3 52.1-29.4 80.7-35.6 14.3-3.1 28.7-4.8 43.1-5.1 3.6-.1 7 0 10.6 0 3.6 0 7.1.3 10.6.5 7 .5 14 1.3 20.8 2.4 27.4 4.5 52.9 13.9 74.8 26.7 11 6.4 21.1 13.5 30.2 21.2 9.1 7.7 17.3 15.9 24.5 24.2 3.6 4.2 6.9 8.5 10.1 12.7 3 4.3 6 8.5 8.6 12.8 2.7 4.2 5 8.6 7.3 12.7 2 4.3 4.2 8.4 5.9 12.5 7.2 16.4 11.2 31.6 13.3 44.2 2.2 12.65 2.5 22.8 2.8 29.6l-.1 10.5c0 .35-.3.6-.6.6s-.6-.2-.6-.6z"/>
      <path d="M565.38 72.23l-6.6-4.16c-2.17-1.33-4.8-3.08-7.97-4.95l-11.1-5.92c-1-.55-2.1-1.17-3.2-1.68-1.1-.5-2.3-1.03-3.5-1.55l-7.5-3.32c-1.3-.58-2.6-1.2-4-1.75l-4.2-1.53c-2.9-1.04-5.9-2.1-9-3.22-1.5-.6-3.1-1.08-4.7-1.5l-5-1.4c-3.4-.87-6.8-2.02-10.4-2.75-7.2-1.37-14.8-3.23-22.8-3.97l-6-.76-3.1-.4-3.1-.14c-4.2-.2-8.4-.43-12.8-.65-4.2-.15-8.8.05-13.3.05-4.4.34-8.9.44-13.5.94-18.3 1.85-37.5 5.58-56.4 12.5-18.9 6.7-37.5 16.3-54.6 28.45-17.1 12.18-32.7 26.97-45.8 43.76-6.6 8.34-12.3 17.3-17.5 26.5-5.2 9.16-9.5 18.8-13.2 28.54-7.2 19.52-11.4 39.75-12.7 59.48l-.4 7.37-.1 1.83v12.92c.1 2.43.3 4.73.4 7.08.2 2.35.3 4.67.5 7l.9 6.96c.4 2.3.5 4.63.9 6.88l1.3 6.75c.7 4.4 1.9 8.8 3 13.1.9 4.3 2.4 8.4 3.7 12.5 1.1 4.1 2.8 8 4.2 11.9 1.4 3.9 3.2 7.5 4.8 11.2 6.7 14.5 14.4 27 21.9 37.6 4 5.2 7.6 10.1 11.4 14.3 1.9 2.1 3.5 4.3 5.3 6.2l5.1 5.4 2.4 2.5 2.4 2.2 4.3 4c2.6 2.5 5 4.5 7 6.2l5.9 5.1h.1c.3.2.3.5.1.8-.2.2-.5.2-.8.1l-6.5-4.4c-2.1-1.5-4.7-3.2-7.6-5.6l-4.7-3.8-2.6-2-2.6-2.3c-7.3-6.2-15.6-14.5-24.3-24.8-8.5-10.4-17.3-22.9-24.9-37.8-1.9-3.8-3.9-7.5-5.5-11.5-1.7-4-3.6-8-5-12.3-1.5-4.3-3.2-8.6-4.3-13.1-1.2-4.5-2.7-9-3.6-13.8l-1.5-7.1c-.6-2.4-.8-4.8-1.2-7.3-.3-2.5-.7-4.9-1-7.4-.3-2.5-.4-5-.6-7.6-.2-2.5-.5-5.1-.6-7.7v-7.5l-.1-3.7v-2l.1-2 .4-7.8c1.7-20.8 6.4-42.3 14.7-62.6 4.1-10.1 8.9-20.1 14.6-29.6 5.7-9.5 11.9-18.7 19-27.3 13.6-17 30.2-32 48.2-44.3 18-12.2 37.4-21.7 57-28.2 19.6-6.7 39.4-10.3 58.2-11.6 4.7-.4 9.5-.4 14-.6 4.6.1 9 0 13.5.3 4.4.3 8.8.7 13.1 1l3.2.2c1 .1 2.1.3 3.1.4l6.1.9c8.2 1 15.8 3.1 23.1 4.7 3.6.9 7.1 2.1 10.5 3.1 1.7.5 3.4 1 5 1.6 1.7.5 3.3 1 4.8 1.7 12.5 4.6 23.1 9.6 31.5 14.1l11.1 6.3c3.1 1.9 5.7 3.7 7.8 5.1l6.5 4.3c.2.2.3.6.1.9-.2.2-.6.3-.9.1z"/>
      <path d="M284.93 66.54l-5.36 4.38c-1.7 1.47-3.98 3.1-6.4 5.27l-8.27 7.3-9.76 9.7-5.24 5.8c-1.9 2-3.8 4-5.5 6.3-7.6 8.7-15.1 19.4-22.4 31.4-1.8 3-3.6 6.1-5.4 9.3l-5 10c-1.65 3.4-3.1 7-4.68 10.5-.84 1.7-1.54 3.6-2.2 5.4l-2.05 5.6c-5.28 15.1-9.35 31.6-11.4 49-2.2 17.3-2.4 35.6-.38 53.8 2.2 18.2 6.8 36.6 13.7 54 7.1 17.4 16.2 34 27.3 48.9 11.1 14.8 23.6 28.3 37.3 39.7 13.6 11.4 28.1 20.8 42.5 28.4 14.4 7.6 28.8 13.3 42.5 17.4 13.7 4.1 26.6 6.6 38.1 8.2 5.7.6 11.1 1.4 16.2 1.6 2.5.2 4.9.4 7.2.4l6.6.1c4.2 0 7.9.1 11.2 0l8.2-.5 6.8-.4c.3 0 .6.2.6.5s-.3.6-.6.6l-6.9.6-8.3.7c-3.3.3-7 .2-11.2.4l-6.7.1-7.4-.3c-5.1 0-10.6-.6-16.4-1.1-11.7-1.3-24.9-3.4-38.9-7.2-14-3.7-28.9-9.1-43.9-16.4-15-7.3-30-16.8-44.3-28.1-14.4-11.4-27.6-25-39.5-40.1-11.9-15.2-21.8-32.3-29.6-50.2-7.8-18-13.1-37.1-16-56.3-2.9-19.3-2.9-38.4-.9-56.8 2.2-18.4 6.7-35.8 12.9-51.6l2.4-5.9c.8-2 1.6-3.9 2.5-5.7 1.8-3.7 3.4-7.4 5.3-10.9l5.7-10.2c2-3.3 4.1-6.4 6.1-9.5.9-1.6 2-3.1 3-4.5l3.2-4.3 3.1-4.2c1.1-1.4 2.2-2.6 3.2-3.9 2.2-2.6 4.2-5.1 6.3-7.5l6.4-6.7c2-2.2 4.1-4.1 6.1-6l5.8-5.5 10.9-8.9 9.2-6.7c2.6-2 5-3.3 6.9-4.5l5.9-3.7c.2-.2.6-.1.8.2.1.2.1.6-.1.7z"/>
      <path d="M261.12 304.18l3.74 7.67 2.02 4.2c.73 1.54 1.73 3.1 2.7 4.84 2.06 3.4 4.06 7.5 7.1 11.7l4.54 6.7c1.6 2.3 3.57 4.5 5.44 7 3.6 5 8.3 9.7 13.02 15 9.98 10.1 22.26 20.4 36.96 29.7l5.6 3.5c1.84 1.2 3.9 2.1 5.87 3.2 4.1 2.1 8.1 4.3 12.4 6 4.3 1.9 8.6 3.9 13.2 5.4 4.6 1.6 9.1 3.3 14 4.5l7.2 2c2.4.7 5 1 7.4 1.6l7.5 1.5c2.6.4 5.1.7 7.7 1 2.6.3 5.2.6 7.8 1 2.6.1 5.3.3 7.9.4 2.6.1 5.4.4 7.9.4h8.3c21.3-.4 43.8-4.2 65.1-11.8 21.4-7.7 41.7-19.4 59.3-34.5 17.6-15.1 32.4-33.5 43-53.7 10.7-20.2 17.3-42.2 19.4-63.9.4-2.7.5-5.4.7-8.1l.3-3.9v-4c0-5.5.1-11-.5-16.1l-.7-7.8c-.3-2.6-.8-5.2-1.2-7.7-.4-2.6-.8-5.1-1.3-7.6l-1.8-7.4c-4.9-19.5-13-37-22.4-51.8-9.4-14.9-20.2-27.1-30.6-36.9l-7.8-6.9c-1.2-1.2-2.5-2.2-3.8-3.1l-3.8-2.9c-4.8-3.9-9.7-6.9-14-9.8l-3.1-2.1-3.1-1.7-5.7-3.1c-3.5-2.1-6.6-3.4-9.1-4.6l-7.8-3.5c-.3-.2-.4-.5-.3-.8.1-.3.4-.4.7-.3l7.9 3.4c2.5 1.1 5.7 2.4 9.3 4.3l5.8 3 3.2 1.7 3.2 2c4.4 2.7 9.4 5.6 14.4 9.5l3.9 2.8c1.4.9 2.7 1.9 4 3 2.6 2.2 5.3 4.5 8.1 6.8 10.8 9.8 22.1 21.9 32.1 36.9 10 14.9 18.7 32.6 24.3 52.6l2.1 7.5c.6 2.5 1 5.1 1.5 7.7.5 2.6 1.1 5.2 1.4 7.9l.9 8.1c.8 5.5.7 10.8.9 16.3l.1 4.1-.2 4.3c-.2 2.8-.2 5.6-.5 8.4-1.8 22.6-8.2 45.6-19 66.9-10.7 21.3-25.8 40.9-44 57-18.1 16.2-39.3 28.9-61.6 37.7-11.2 4.3-22.7 7.6-34.2 9.9-11.6 2.2-23.1 3.4-34.7 3.8l-8.3-.1c-3.1 0-5.7-.3-8.6-.5l-8.4-.5-8.2-1.2c-2.7-.4-5.4-.7-8.1-1.2l-8-1.7c-2.6-.6-5.2-1.1-7.8-1.9-2.5-.8-5-1.5-7.5-2.3-5.1-1.4-9.8-3.4-14.6-5.2-4.8-1.7-9.3-4-13.7-6.1-4.5-2-8.6-4.6-12.7-7-2-1.28-4.1-2.3-6-3.67l-5.7-3.9c-15-10.3-27.1-21.9-36.8-32.9-4.6-5.8-9-11.05-12.4-16.44-1.8-2.65-3.6-5.1-5-7.6l-4.1-7.2c-2.7-4.5-4.4-8.9-6.2-12.6-.9-1.8-1.8-3.5-2.3-5.1-.6-1.6-1.2-3.06-1.6-4.37l-3-8c-.1-.3 0-.6.3-.7.3-.1.6 0 .8.3z"/>
      <path d="M268.6 262.3l2 7.22 1.1 3.94c.42 1.43.7 3.08 1.38 4.7l4.16 11.24c1.7 4.15 4.03 8.6 6.28 13.5 1.17 2.43 2.72 4.8 4.13 7.34l2.23 3.84c.75 1.3 1.5 2.66 2.44 3.9 6.84 10.42 15.7 21.33 26.62 31.97l8.8 7.66 2.24 2 2.42 1.8 4.92 3.6c1.66 1.2 3.28 2.5 5 3.7l5.34 3.3c3.6 2.2 7.17 4.6 11.12 6.5 15.36 8.1 32.58 14.9 51.22 18.5 4.64.9 9.38 1.6 14.13 2.4 2.36.5 4.78.6 7.2.8l7.28.6 3.7.3h3.7c2.5 0 5.2.2 7.6 0l7.4-.2 7.5-.6c19.9-1.9 39.8-7.1 58.2-15.7 18.5-8.5 35.5-20.2 49.8-34.3 14.4-14 25.9-30.5 34-47.8 8.3-17.3 12.8-35.5 14.6-53 1.6-17.5.6-34.4-2.8-49.4-3.2-15.1-8.3-28.5-14.1-39.6-5.7-11.2-11.9-20.3-17.5-27.4-5.6-7.1-10.5-12.3-13.9-15.7l-5.3-5.2c-.2-.2-.2-.5 0-.7.2-.2.6-.2.8 0l5.5 5.1c3.5 3.4 8.6 8.5 14.5 15.5 5.8 7 12.3 16.1 18.4 27.4 6.2 11.2 11.7 24.7 15.4 40 3.9 15.4 5.4 32.6 4.2 50.7-1.4 18.1-5.7 37.1-14 55.2-8.1 18.1-19.7 35.5-34.4 50.4-14.6 14.9-32.1 27.5-51.3 36.8-19.1 9.4-39.9 15.3-60.7 17.9l-7.8.9-7.9.5c-2.7.2-5.1.1-7.7.1h-4l-3.9-.2-7.7-.5c-2.5-.2-5.1-.2-7.6-.7-5-.8-10-1.4-15-2.3l-14.5-3.5L380 400c-4.5-1.6-8.8-3.7-13.2-5.54-1.1-.5-2.1-.9-3.2-1.46l-3.1-1.7-6.1-3.33c-4.1-2.1-7.8-4.7-11.5-7.1l-5.5-3.63c-1.7-1.3-3.4-2.7-5.1-4-1.7-1.4-3.4-2.7-5-4.05-.9-.7-1.7-1.3-2.5-2l-2.3-2.1-8.9-8.5-7.8-8.8c-2.6-2.8-4.6-5.9-6.9-8.8-4.5-5.7-7.9-11.7-11.3-17.2-.9-1.4-1.5-2.8-2.2-4.2l-2-4.1c-1.24-2.7-2.65-5.2-3.7-7.8-1.93-5.3-3.9-10-5.3-14.4l-3.22-11.9c-.9-3.5-1.2-6.4-1.7-8.8l-1.2-7.4c-.05-.3.1-.6.4-.6.3-.1.6.1.6.3z"/>
    </g>
  </g>
</svg>
